<svg xmlns="http://www.w3.org/2000/svg" xmlns:xlink="http://www.w3.org/1999/xlink" width="500" zoomAndPan="magnify" viewBox="0 0 375 374.999991" height="500" preserveAspectRatio="xMidYMid meet" version="1.0"><defs><g/><clipPath id="c0dac572f0"><path d="M 138 168 L 238 168 L 238 283.5 L 138 283.5 Z M 138 168 " clip-rule="nonzero"/></clipPath><clipPath id="6b24a84744"><path d="M 138 37.5 L 238 37.5 L 238 155 L 138 155 Z M 138 37.5 " clip-rule="nonzero"/></clipPath><clipPath id="460f39fcc4"><path d="M 64.679688 110 L 180 110 L 180 211 L 64.679688 211 Z M 64.679688 110 " clip-rule="nonzero"/></clipPath><clipPath id="000ecce10c"><path d="M 193 110 L 310.679688 110 L 310.679688 211 L 193 211 Z M 193 110 " clip-rule="nonzero"/></clipPath></defs><g clip-path="url(#c0dac572f0)"><path fill="#4386ce" d="M 222.976562 240.402344 L 222.976562 269.164062 L 152.378906 269.164062 L 152.378906 168.746094 L 138.046875 168.746094 L 138.046875 270.097656 C 138.046875 277.488281 144.058594 283.496094 151.445312 283.496094 L 223.910156 283.496094 C 231.296875 283.496094 237.308594 277.488281 237.308594 270.097656 L 237.308594 240.402344 L 222.976562 240.402344 " fill-opacity="1" fill-rule="nonzero"/></g><g clip-path="url(#6b24a84744)"><path fill="#4386ce" d="M 223.910156 37.503906 L 151.445312 37.503906 C 144.058594 37.503906 138.046875 43.511719 138.046875 50.902344 L 138.046875 81.3125 L 152.378906 81.3125 L 152.378906 51.835938 L 222.976562 51.835938 L 222.976562 154.414062 L 237.308594 154.414062 L 237.308594 50.902344 C 237.308594 43.511719 231.296875 37.503906 223.910156 37.503906 " fill-opacity="1" fill-rule="nonzero"/></g><g clip-path="url(#460f39fcc4)"><path fill="#1b2d47" d="M 107.773438 195.796875 L 79.011719 195.796875 L 79.011719 125.203125 L 179.429688 125.203125 L 179.429688 110.871094 L 78.078125 110.871094 C 70.691406 110.871094 64.679688 116.878906 64.679688 124.265625 L 64.679688 196.734375 C 64.679688 204.121094 70.691406 210.128906 78.078125 210.128906 L 107.773438 210.128906 L 107.773438 195.796875 " fill-opacity="1" fill-rule="nonzero"/></g><g clip-path="url(#000ecce10c)"><path fill="#1b2d47" d="M 310.675781 196.734375 L 310.675781 124.265625 C 310.675781 116.878906 304.664062 110.871094 297.277344 110.871094 L 266.863281 110.871094 L 266.863281 125.203125 L 296.34375 125.203125 L 296.34375 195.796875 L 193.761719 195.796875 L 193.761719 210.128906 L 297.277344 210.128906 C 304.664062 210.128906 310.675781 204.121094 310.675781 196.734375 " fill-opacity="1" fill-rule="nonzero"/></g><g fill="#000000" fill-opacity="1"><g transform="translate(135.286534, 333.995236)"><g><path d="M 25.421875 -14.0625 L 25.375 -10.296875 C 25.40625 -6.890625 24.414062 -4.253906 22.40625 -2.390625 C 20.394531 -0.523438 17.507812 0.40625 13.75 0.40625 C 10.144531 0.40625 7.394531 -0.492188 5.5 -2.296875 C 3.601562 -4.109375 2.703125 -6.695312 2.796875 -10.0625 L 2.84375 -14.1875 L 2.703125 -28.5625 L 8.734375 -28.5625 L 8.421875 -10.875 C 8.398438 -8.707031 8.859375 -7.109375 9.796875 -6.078125 C 10.742188 -5.046875 12.179688 -4.53125 14.109375 -4.53125 C 17.953125 -4.53125 19.859375 -6.539062 19.828125 -10.5625 L 19.515625 -28.5625 L 25.640625 -28.5625 Z M 25.421875 -14.0625 "/></g></g></g><g fill="#000000" fill-opacity="1"><g transform="translate(163.588413, 333.995236)"><g><path d="M 16.375 0 L 9.1875 0 L 0.4375 -28.5625 L 6.5625 -28.5625 L 7.28125 -24.796875 L 12.6875 -5.59375 L 13.09375 -5.59375 L 19.296875 -24.484375 L 20.046875 -28.5625 L 26 -28.5625 Z M 16.375 0 "/></g></g></g><g fill="#000000" fill-opacity="1"><g transform="translate(189.627919, 333.995236)"><g><path d="M 12.640625 -28.921875 C 15.066406 -28.921875 17.476562 -28.429688 19.875 -27.453125 L 18.890625 -22.265625 L 18.015625 -21.90625 C 17.003906 -22.625 15.957031 -23.1875 14.875 -23.59375 C 13.800781 -24.007812 12.820312 -24.21875 11.9375 -24.21875 C 10.75 -24.21875 9.800781 -23.898438 9.09375 -23.265625 C 8.382812 -22.628906 8.03125 -21.898438 8.03125 -21.078125 C 8.03125 -20.210938 8.421875 -19.484375 9.203125 -18.890625 C 9.984375 -18.304688 11.21875 -17.613281 12.90625 -16.8125 C 14.53125 -16.070312 15.851562 -15.382812 16.875 -14.75 C 17.894531 -14.113281 18.765625 -13.273438 19.484375 -12.234375 C 20.210938 -11.203125 20.578125 -9.929688 20.578125 -8.421875 C 20.578125 -6.796875 20.132812 -5.3125 19.25 -3.96875 C 18.363281 -2.625 17.109375 -1.554688 15.484375 -0.765625 C 13.859375 0.015625 11.976562 0.40625 9.84375 0.40625 C 7.039062 0.40625 4.21875 -0.203125 1.375 -1.421875 L 2.21875 -7.015625 L 2.890625 -7.359375 C 4.066406 -6.328125 5.359375 -5.535156 6.765625 -4.984375 C 8.171875 -4.441406 9.421875 -4.171875 10.515625 -4.171875 C 11.816406 -4.171875 12.828125 -4.488281 13.546875 -5.125 C 14.273438 -5.757812 14.640625 -6.519531 14.640625 -7.40625 C 14.640625 -8.351562 14.242188 -9.125 13.453125 -9.71875 C 12.671875 -10.3125 11.410156 -11.019531 9.671875 -11.84375 C 8.078125 -12.550781 6.773438 -13.210938 5.765625 -13.828125 C 4.765625 -14.453125 3.90625 -15.28125 3.1875 -16.3125 C 2.476562 -17.351562 2.125 -18.613281 2.125 -20.09375 C 2.125 -21.75 2.566406 -23.25 3.453125 -24.59375 C 4.347656 -25.9375 5.59375 -26.992188 7.1875 -27.765625 C 8.78125 -28.535156 10.597656 -28.921875 12.640625 -28.921875 Z M 12.640625 -28.921875 "/></g></g></g><g fill="#000000" fill-opacity="1"><g transform="translate(211.719353, 333.995236)"><g/></g></g><g fill="#000000" fill-opacity="1"><g transform="translate(218.417762, 333.995236)"><g><path d="M 12.6875 -20.765625 L 12.6875 -13.53125 L 19.875 -13.53125 L 20.265625 -13.125 L 19.96875 -9.53125 L 12.6875 -9.53125 L 12.6875 -2.21875 L 9.09375 -1.953125 L 8.65625 -2.3125 L 8.65625 -9.53125 L 1.421875 -9.53125 L 1.015625 -9.9375 L 1.328125 -13.53125 L 8.65625 -13.53125 L 8.65625 -20.890625 L 12.25 -21.203125 Z M 12.6875 -20.765625 "/></g></g></g></svg>